<?xml version="1.0" standalone="no"?>
<!DOCTYPE svg PUBLIC "-//W3C//DTD SVG 20010904//EN"
 "http://www.w3.org/TR/2001/REC-SVG-20010904/DTD/svg10.dtd">
<svg version="1.0" xmlns="http://www.w3.org/2000/svg"
 width="220.000000pt" height="97.000000pt" viewBox="0 0 220.000000 97.000000"
 preserveAspectRatio="xMidYMid meet">

<g transform="translate(0.000000,97.000000) scale(0.100000,-0.100000)"
fill="#000000" stroke="none">
<path d="M725 919 c-38 -5 -82 -8 -97 -9 -16 0 -28 -4 -28 -8 0 -5 -10 -8 -22
-7 -45 3 -204 -55 -191 -70 5 -4 0 -5 -9 -2 -10 4 -18 2 -18 -4 0 -6 -4 -8 -8
-5 -5 3 -27 -4 -50 -15 -36 -18 -47 -33 -44 -60 1 -3 -6 -6 -13 -6 -11 0 -12
4 -4 14 6 7 7 13 2 13 -12 0 -85 -77 -107 -114 -16 -25 -16 -28 -3 -23 11 4
14 2 10 -8 -3 -8 -10 -12 -16 -8 -6 4 -8 0 -4 -10 3 -9 1 -19 -5 -23 -6 -4 -8
-3 -4 4 3 6 3 13 -2 16 -5 3 -9 0 -10 -7 0 -7 -3 -23 -6 -37 -6 -21 -5 -22 3
-5 8 17 10 17 10 3 1 -9 -3 -20 -9 -23 -16 -10 -12 -62 5 -69 8 -3 15 -11 14
-18 0 -10 -2 -10 -6 0 -2 6 -9 12 -14 12 -6 0 -6 -7 0 -19 6 -10 7 -22 3 -26
-4 -5 1 -5 10 -2 20 7 34 -8 17 -19 -8 -5 -9 -3 -4 6 5 9 4 11 -3 6 -14 -9 2
-46 20 -46 6 0 8 -3 5 -7 -8 -7 11 -33 25 -33 5 0 6 5 2 11 -4 8 0 8 15 0 20
-11 25 -22 22 -47 -1 -6 6 -18 16 -25 15 -12 16 -12 8 1 -7 12 -6 13 7 3 8 -7
18 -10 22 -6 4 4 4 0 1 -8 -4 -12 15 -26 77 -57 46 -23 95 -43 108 -44 14 -2
28 -6 31 -11 3 -4 20 -9 37 -10 18 -1 32 -5 32 -8 0 -9 115 -25 178 -24 28 0
52 -3 52 -7 0 -20 258 4 272 24 5 9 8 10 8 1 0 -8 9 -9 33 -2 17 6 41 12 52
13 51 7 85 18 85 27 0 6 4 8 9 5 5 -3 21 4 37 16 15 13 24 17 20 10 -4 -7 19
1 53 18 34 16 61 32 61 34 0 7 -44 -6 -57 -16 -7 -5 -22 -11 -35 -13 -13 -1
-52 -8 -88 -15 -36 -7 -73 -13 -82 -12 -9 0 -19 -6 -22 -14 -5 -12 -1 -14 17
-9 18 5 19 4 5 -5 -9 -5 -24 -7 -33 -4 -12 5 -13 9 -4 14 6 5 -35 7 -92 6
-126 -1 -239 10 -327 34 -27 7 -35 5 -44 -10 -10 -16 -13 -16 -26 -3 -8 8 -20
12 -27 10 -6 -3 -12 1 -12 9 0 7 5 10 10 7 13 -8 61 -13 53 -6 -11 11 -141 51
-150 46 -5 -4 -6 -1 -2 5 4 6 -6 18 -23 27 -39 20 -51 19 -46 -3 2 -11 -3 -19
-10 -19 -8 0 -11 5 -7 11 10 17 13 48 3 42 -5 -3 -8 9 -7 27 2 22 -5 41 -21
60 -12 16 -23 37 -23 48 0 12 -4 17 -11 13 -8 -4 -9 1 -4 16 6 17 4 21 -6 14
-11 -6 -12 -5 -2 7 7 8 14 32 16 54 3 31 13 47 45 75 40 36 42 36 94 28 29 -4
59 -9 66 -10 6 -1 12 -7 12 -14 0 -7 5 -16 12 -20 6 -4 8 -3 5 3 -3 5 0 10 8
10 10 0 11 -5 5 -17 -5 -9 -5 -22 1 -31 5 -7 9 -35 9 -61 0 -27 5 -48 10 -48
6 0 10 -8 10 -17 0 -15 -2 -16 -10 -3 -7 12 -12 7 -24 -22 -10 -22 -27 -41
-46 -49 -16 -8 -30 -17 -30 -20 0 -3 -11 -4 -25 -1 -19 3 -25 0 -25 -13 0 -15
7 -17 41 -12 42 6 79 30 79 54 0 7 5 13 11 13 5 0 7 -6 3 -12 -5 -9 -2 -9 9 1
9 7 17 22 17 32 0 10 4 20 9 23 4 3 7 34 6 68 -3 91 -3 91 -21 84 -13 -5 -14
-4 -5 7 8 11 7 18 -7 31 -10 9 -22 13 -27 9 -4 -5 -5 -3 -1 4 5 10 -7 25 -24
29 -3 0 -13 4 -24 9 -11 5 -26 3 -38 -4 -12 -7 -17 -8 -13 -2 9 15 -8 14 -24
-1 -11 -10 -13 -10 -7 0 8 14 -10 17 -19 2 -6 -9 -35 -3 -35 9 0 6 34 28 100
63 34 19 100 45 130 52 57 14 70 19 70 25 0 4 18 7 40 7 28 0 44 6 54 19 8 11
18 17 22 12 4 -4 2 -7 -4 -7 -7 0 -12 -5 -12 -11 0 -7 11 -8 31 -4 40 9 266 9
299 1 14 -4 38 -3 52 3 22 8 26 8 21 -4 -4 -11 2 -15 20 -15 14 0 54 -9 89
-20 75 -24 68 -23 68 -8 0 6 -3 9 -6 5 -4 -3 -13 1 -21 9 -9 8 -22 13 -30 10
-8 -3 -11 -1 -8 4 6 9 2 12 -27 14 -7 1 -19 7 -26 14 -7 6 -19 12 -25 12 -7 0
-6 -4 3 -10 9 -6 10 -10 3 -10 -7 0 -17 8 -22 18 -6 9 -11 13 -11 9 0 -4 -9
-3 -21 3 -36 20 -123 39 -229 49 -111 12 -130 12 -235 0z m-208 -55 c-3 -3
-12 -4 -19 -1 -8 3 -5 6 6 6 11 1 17 -2 13 -5z m-93 -39 c-4 -8 -10 -15 -15
-15 -4 0 -6 7 -3 15 4 8 10 15 15 15 4 0 6 -7 3 -15z m103 -1 c-3 -3 -12 -4
-19 -1 -8 3 -5 6 6 6 11 1 17 -2 13 -5z m-212 -34 c-3 -5 -12 -10 -18 -10 -7
0 -6 4 3 10 19 12 23 12 15 0z m209 -24 c-10 -8 -21 -12 -24 -10 -5 6 21 24
34 24 6 0 1 -6 -10 -14z m-307 -51 c0 -8 -4 -12 -9 -9 -5 3 -6 10 -3 15 9 13
12 11 12 -6z m194 -8 c-10 -9 -11 -8 -5 6 3 10 9 15 12 12 3 -3 0 -11 -7 -18z
m-227 -25 c3 -5 -1 -9 -9 -9 -8 0 -12 4 -9 9 3 4 7 8 9 8 2 0 6 -4 9 -8z m41
-11 c-3 -6 -11 -11 -17 -11 -6 0 -6 6 2 15 14 17 26 13 15 -4z m194 -14 c-2
-1 -11 -8 -21 -15 -12 -10 -18 -10 -24 -1 -4 7 -3 9 4 5 6 -3 13 -2 17 4 3 5
11 10 17 10 6 0 9 -1 7 -3z m-43 -44 c-7 -7 -26 7 -26 19 0 6 6 6 15 -2 9 -7
13 -15 11 -17z m-38 -18 c-3 -3 -9 2 -12 12 -6 14 -5 15 5 6 7 -7 10 -15 7
-18z m-187 -8 c-10 -9 -11 -8 -5 6 3 10 9 15 12 12 3 -3 0 -11 -7 -18z m-12
-108 c-5 -3 -7 -14 -4 -25 5 -16 5 -16 -4 -3 -5 8 -7 26 -4 38 4 17 8 19 14
10 4 -8 4 -16 -2 -20z m237 -91 c16 -18 21 -26 11 -18 -16 12 -20 12 -28 -1
-6 -10 -9 -11 -9 -1 0 7 -4 10 -10 7 -6 -4 -7 1 -3 11 5 13 3 15 -8 9 -12 -8
-12 -6 0 8 7 9 14 17 15 17 1 0 15 -14 32 -32z m9 -37 c3 -5 2 -12 -3 -15 -5
-3 -9 1 -9 9 0 17 3 19 12 6z m70 -81 c3 -5 1 -10 -4 -10 -6 0 -11 5 -11 10 0
6 2 10 4 10 3 0 8 -4 11 -10z m-98 -36 c-3 -3 -12 -4 -19 -1 -8 3 -5 6 6 6 11
1 17 -2 13 -5z m178 -12 c-3 -3 -11 0 -18 7 -9 10 -8 11 6 5 10 -3 15 -9 12
-12z m-162 -9 c-7 -2 -19 -2 -25 0 -7 3 -2 5 12 5 14 0 19 -2 13 -5z m194 -8
c0 -8 -4 -12 -9 -9 -5 3 -6 10 -3 15 9 13 12 11 12 -6z m-112 -45 c-3 -5 -12
-10 -18 -10 -7 0 -6 4 3 10 19 12 23 12 15 0z m60 -8 c-3 -3 -11 0 -18 7 -9
10 -8 11 6 5 10 -3 15 -9 12 -12z m2 -18 c-3 -3 -12 -4 -19 -1 -8 3 -5 6 6 6
11 1 17 -2 13 -5z m393 -14 c0 -5 -2 -10 -4 -10 -3 0 -8 5 -11 10 -3 6 -1 10
4 10 6 0 11 -4 11 -10z m-280 -10 c0 -5 -5 -10 -11 -10 -5 0 -7 5 -4 10 3 6 8
10 11 10 2 0 4 -4 4 -10z"/>
<path d="M346 397 c3 -10 9 -15 12 -12 3 3 0 11 -7 18 -10 9 -11 8 -5 -6z"/>
<path d="M1390 781 c0 -8 50 -34 56 -29 1 2 -11 11 -27 20 -16 9 -29 14 -29 9z"/>
<path d="M1506 664 c-4 -10 -2 -13 7 -8 6 4 9 4 5 -1 -4 -4 -3 -14 3 -22 9 -9
8 -13 0 -13 -6 0 -11 5 -11 10 0 6 -6 9 -12 8 -7 -2 -12 3 -10 10 5 28 -30 3
-53 -37 -6 -10 -4 -12 6 -7 8 4 3 -2 -11 -13 -14 -11 -22 -21 -19 -21 4 0 3
-17 -1 -37 -13 -57 1 -108 28 -108 12 0 22 -4 23 -10 1 -5 5 -19 11 -30 8 -19
8 -19 -5 -2 -13 15 -15 15 -20 2 -4 -10 2 -17 18 -21 14 -3 22 -10 19 -15 -3
-5 -2 -9 3 -8 4 2 21 -4 36 -11 23 -11 30 -11 36 -1 6 9 11 10 15 2 4 -6 12
-11 18 -11 7 0 7 5 -1 14 -9 11 -8 14 6 12 11 0 17 5 15 13 -3 12 0 12 12 1
19 -15 20 -21 5 -17 -6 1 -14 -5 -16 -13 -4 -13 -3 -13 6 0 6 8 11 11 11 6 0
-5 7 -3 16 5 14 12 14 14 -3 27 -17 13 -16 13 7 7 23 -7 24 -7 10 11 -14 18
-14 18 2 5 10 -7 15 -17 12 -22 -3 -5 -3 -9 1 -9 3 0 10 10 15 23 8 19 9 18 7
-12 -1 -24 3 -34 13 -36 13 -2 16 13 18 84 l2 87 -49 0 c-45 1 -48 -1 -38 -18
7 -10 17 -16 22 -14 6 2 10 -8 10 -23 0 -28 -42 -71 -69 -71 -9 0 -16 -5 -16
-12 0 -9 -3 -9 -12 0 -7 7 -20 12 -30 12 -27 0 -64 44 -71 83 -3 17 -9 41 -13
51 -5 13 -4 17 3 13 7 -4 13 7 18 29 4 25 15 41 36 52 16 9 29 24 30 32 0 10
2 11 6 3 7 -18 23 -16 45 4 17 15 21 15 30 3 8 -12 8 -11 3 5 -6 18 -5 18 15
-2 25 -27 27 -28 27 -8 0 20 -22 27 -99 31 -52 3 -67 0 -72 -12z m-5 -54 c-4
-3 -13 -14 -20 -25 -11 -18 -12 -18 -7 -1 4 11 0 24 -11 33 -10 8 -12 12 -5 8
6 -3 12 -1 12 4 0 8 7 7 20 -1 10 -7 16 -15 11 -18z m-37 -55 c3 -8 1 -15 -4
-15 -6 0 -10 7 -10 15 0 8 2 15 4 15 2 0 6 -7 10 -15z m-1 -68 c3 -8 -1 -14
-8 -14 -7 0 -11 6 -8 14 3 7 6 13 8 13 2 0 5 -6 8 -13z m79 -137 c5 0 6 4 3
10 -3 6 1 7 10 4 20 -8 12 -16 -20 -19 -23 -3 -37 7 -41 30 -1 6 -5 19 -9 30
-4 11 5 3 20 -17 16 -21 32 -38 37 -38z"/>
<path d="M1797 673 c-4 -3 -7 -82 -7 -174 l0 -167 125 0 c124 0 125 0 125 24
0 22 -3 23 -62 21 -35 -2 -72 -7 -82 -12 -13 -6 -17 -5 -13 2 4 6 0 13 -8 17
-12 4 -15 31 -15 151 l0 145 -28 0 c-16 0 -32 -3 -35 -7z m47 -12 c-8 -8 -43
-8 -38 0 2 4 13 7 24 6 10 -1 17 -3 14 -6z"/>
<path d="M1606 634 c-3 -8 -2 -12 4 -9 5 3 19 -8 31 -25 13 -16 29 -30 36 -30
18 0 16 10 -3 25 -15 11 -15 12 0 12 9 0 16 -4 16 -9 0 -5 4 -6 10 -3 5 3 7 0
4 -8 -3 -8 1 -14 9 -14 9 0 12 7 9 19 -5 20 -18 31 -42 34 -28 5 -45 10 -56
17 -7 4 -15 0 -18 -9z"/>
<path d="M700 540 c0 -5 7 -7 15 -4 8 4 15 8 15 10 0 2 -7 4 -15 4 -8 0 -15
-4 -15 -10z"/>
<path d="M770 539 c0 -5 -4 -8 -9 -5 -5 3 -11 0 -14 -8 -4 -9 -14 -12 -26 -9
-19 5 -20 0 -20 -136 -1 -107 2 -141 11 -141 9 0 12 15 10 50 -2 28 1 57 7 64
8 9 8 22 0 43 -17 50 5 123 36 123 8 0 15 7 15 15 0 8 -2 15 -5 15 -3 0 -5 -5
-5 -11z m-40 -33 c0 -3 -4 -8 -10 -11 -5 -3 -10 -1 -10 4 0 6 5 11 10 11 6 0
10 -2 10 -4z"/>
<path d="M790 539 c0 -6 6 -9 12 -7 7 3 26 -8 42 -23 26 -24 30 -35 29 -78 0
-34 3 -51 11 -51 7 0 13 6 13 13 0 6 4 21 9 31 4 12 4 17 -2 13 -5 -3 -9 9 -9
26 0 34 -20 67 -42 67 -7 0 -13 4 -13 8 0 4 -11 9 -25 10 -14 1 -25 -3 -25 -9z
m91 -36 c13 -16 12 -17 -3 -4 -10 7 -18 15 -18 17 0 8 8 3 21 -13z"/>
<path d="M1000 534 c0 -8 -4 -12 -10 -9 -5 3 -10 1 -10 -5 0 -6 -5 -8 -12 -4
-6 4 -8 3 -5 -3 4 -6 0 -14 -9 -17 -9 -3 -14 -12 -11 -19 2 -6 0 -20 -4 -29
-6 -10 -5 -19 1 -23 6 -4 8 -11 5 -16 -4 -5 0 -9 7 -9 11 0 11 -2 0 -9 -17
-10 14 -48 43 -53 11 -2 23 -7 26 -11 3 -5 9 -1 13 9 4 10 4 15 0 11 -4 -3
-20 1 -36 11 -23 13 -28 23 -26 47 l3 30 81 -3 82 -3 -4 33 c-2 18 -9 35 -14
36 -6 2 -8 8 -4 13 3 5 -7 14 -23 21 -41 16 -52 17 -60 6 -3 -6 -1 -8 5 -4 6
3 13 2 17 -4 3 -5 18 -10 33 -11 15 0 21 -3 14 -6 -10 -4 -10 -10 3 -29 20
-31 11 -35 -78 -37 -53 -2 -64 1 -62 13 2 8 4 18 4 23 1 4 12 17 26 29 26 23
32 38 15 38 -5 0 -10 -7 -10 -16z"/>
<path d="M1177 538 c12 -18 10 -191 -2 -201 -6 -5 -4 -7 5 -4 11 3 16 21 18
68 3 71 16 106 44 115 10 3 16 10 13 15 -4 5 -1 9 6 9 7 0 9 3 6 7 -4 3 -16
-3 -27 -15 -20 -21 -51 -30 -49 -14 3 18 -2 32 -12 32 -6 0 -7 -5 -2 -12z"/>
<path d="M1282 538 c3 -7 17 -13 31 -13 29 -1 36 9 12 19 -8 3 -15 1 -15 -4 0
-6 -5 -10 -11 -10 -5 0 -7 5 -4 10 3 6 1 10 -5 10 -7 0 -10 -6 -8 -12z"/>
<path d="M1324 503 c3 -8 6 -50 6 -94 0 -65 3 -79 16 -79 13 0 15 14 12 92 -3
79 -5 91 -21 94 -13 2 -17 -2 -13 -13z"/>
<path d="M1599 502 c9 -7 10 -12 2 -16 -21 -13 -11 -26 20 -26 30 0 31 1 17
23 -9 12 -24 23 -34 25 -14 2 -16 1 -5 -6z"/>
<path d="M1430 402 c0 -12 3 -12 15 -2 8 7 15 13 15 15 0 1 -7 2 -15 2 -8 0
-15 -7 -15 -15z"/>
<path d="M1103 370 c-3 -11 -9 -18 -13 -15 -4 3 -19 -4 -31 -15 -20 -16 -21
-19 -7 -20 9 0 22 8 27 18 7 11 10 13 11 3 0 -11 3 -11 16 -1 8 8 20 22 25 32
8 14 6 18 -7 18 -9 0 -18 -9 -21 -20z"/>
<path d="M2091 372 c-13 -25 8 -56 35 -50 29 5 27 62 -3 66 -13 2 -26 -4 -32
-16z m46 -26 c-4 -9 -12 -16 -19 -16 -10 0 -9 3 1 9 9 6 11 16 7 27 -6 15 -4
16 5 7 6 -6 9 -19 6 -27z"/>
<path d="M845 360 c-16 -18 -53 -20 -89 -5 -14 6 -17 5 -14 -6 3 -8 12 -13 22
-11 9 2 16 -2 16 -7 0 -5 12 -8 28 -7 15 2 33 4 40 5 7 0 10 6 7 11 -3 6 4 14
16 18 18 7 19 10 7 15 -9 3 -23 -2 -33 -13z"/>
<path d="M415 349 c-8 -13 -6 -15 23 -23 25 -8 28 -1 8 20 -17 17 -23 17 -31
3z"/>
<path d="M180 302 c0 -12 19 -26 26 -19 2 2 -2 10 -11 17 -9 8 -15 8 -15 2z"/>
</g>
</svg>
