<?xml version="1.0" standalone="no"?>
<!DOCTYPE svg PUBLIC "-//W3C//DTD SVG 20010904//EN"
 "http://www.w3.org/TR/2001/REC-SVG-20010904/DTD/svg10.dtd">
<svg version="1.0" xmlns="http://www.w3.org/2000/svg"
 width="1490.000000pt" height="1117.000000pt" viewBox="0 0 1490.000000 1117.000000"
 preserveAspectRatio="xMidYMid meet">

<g transform="translate(0.000000,1117.000000) scale(0.100000,-0.100000)"
fill="#000000" stroke="none">
<path d="M10199 7538 c-176 -22 -312 -135 -387 -322 -15 -37 -17 -164 -22
-1351 l-5 -1310 -687 -5 -688 -5 -27 -28 c-26 -26 -28 -32 -27 -110 2 -112 26
-203 86 -325 109 -222 323 -388 567 -437 129 -27 308 -17 423 22 214 74 379
217 478 418 92 185 84 36 90 1640 l5 1420 22 41 c30 55 106 121 157 135 119
33 243 -14 307 -118 11 -17 24 -58 29 -90 13 -80 28 -112 61 -128 45 -24 77
-19 115 19 30 30 34 40 34 89 0 59 -33 170 -68 226 -31 51 -110 129 -160 158
-88 52 -200 75 -303 61z m-426 -3223 c-6 -76 -98 -241 -174 -310 -225 -203
-541 -224 -783 -51 -72 51 -117 101 -171 191 -37 62 -79 180 -69 196 3 5 252
8 602 7 l597 -3 -2 -30z"/>
<path d="M7603 6366 c-144 -36 -203 -143 -207 -376 l-1 -55 -72 -5 c-80 -6
-99 -17 -109 -67 -5 -26 -1 -37 19 -57 23 -23 35 -26 92 -26 36 0 66 -3 66 -7
1 -5 3 -163 4 -353 1 -190 3 -358 4 -374 1 -18 14 -41 35 -62 29 -29 41 -34
80 -34 36 0 52 6 78 29 l33 29 5 384 5 383 85 3 c70 2 89 7 107 24 31 29 30
78 0 106 -20 19 -35 22 -104 22 -97 0 -98 1 -88 112 12 137 33 159 152 157 72
-1 78 0 100 25 47 55 16 117 -67 135 -83 18 -163 20 -217 7z"/>
<path d="M1522 6349 c-30 -4 -53 -15 -75 -37 l-32 -32 -3 -610 c-3 -674 -4
-661 60 -700 31 -19 50 -20 344 -20 275 0 320 2 387 19 212 55 335 230 298
427 -15 84 -40 134 -94 186 -42 41 -127 88 -159 88 -31 0 -20 25 16 38 53 20
132 96 160 157 22 44 26 68 26 137 -1 128 -45 209 -151 278 -96 62 -146 70
-459 73 -152 1 -295 -1 -318 -4z m456 -178 c131 -20 201 -81 210 -185 5 -68
-10 -114 -51 -156 -62 -64 -101 -74 -292 -74 l-170 -1 -3 190 c-1 105 0 200 3
213 5 21 9 22 123 22 64 0 145 -4 180 -9z m123 -609 c30 -12 67 -34 82 -50 92
-96 69 -282 -43 -339 -67 -34 -141 -44 -311 -41 l-154 3 -3 215 c-1 118 0 221
3 228 4 12 38 13 188 10 156 -4 190 -8 238 -26z"/>
<path d="M6865 6346 c-85 -38 -87 -149 -5 -191 68 -35 188 -7 206 48 14 44 4
91 -26 121 -24 25 -39 30 -87 33 -35 2 -70 -2 -88 -11z"/>
<path d="M9231 6334 c-51 -36 -51 -39 -51 -684 0 -496 2 -607 14 -635 25 -59
104 -82 166 -50 61 32 60 15 60 685 0 659 1 647 -52 684 -29 21 -107 20 -137
0z"/>
<path d="M6235 6247 c-32 -32 -33 -33 -39 -157 -4 -69 -10 -133 -12 -142 -4
-15 -17 -18 -70 -18 -56 0 -68 -4 -89 -25 -17 -16 -25 -35 -25 -60 0 -56 42
-85 109 -75 7 1 24 -1 36 -4 l23 -6 4 -302 c4 -284 6 -307 26 -360 25 -62 92
-132 139 -145 15 -4 78 -8 138 -8 141 1 187 21 201 92 4 23 0 36 -19 58 -23
28 -28 29 -101 27 -144 -5 -146 1 -146 362 0 315 -9 290 103 284 71 -3 116 17
118 52 1 11 2 26 3 33 3 17 -14 49 -33 64 -10 8 -51 12 -103 13 l-88 0 0 147
c0 146 0 147 -27 175 -21 22 -36 28 -71 28 -36 0 -50 -6 -77 -33z"/>
<path d="M3084 5930 c-23 -5 -69 -22 -101 -39 -165 -83 -274 -263 -274 -451 1
-140 54 -272 147 -366 59 -58 129 -96 224 -120 79 -20 244 -14 330 11 70 21
163 78 190 115 38 54 16 120 -40 120 -13 0 -60 -16 -105 -35 -136 -58 -242
-66 -347 -26 -42 16 -101 75 -127 127 -29 58 -40 133 -20 135 8 1 163 2 346 3
383 1 366 -3 364 88 -1 122 -51 247 -129 322 -58 56 -90 77 -157 100 -58 20
-237 30 -301 16z m224 -165 c55 -23 109 -82 132 -142 37 -100 56 -93 -236 -93
l-256 0 7 33 c19 83 86 171 155 201 46 20 151 20 198 1z"/>
<path d="M4155 5934 c-11 -2 -45 -9 -75 -15 -74 -15 -147 -56 -176 -99 -29
-43 -30 -60 -3 -94 27 -34 55 -33 151 4 85 33 194 47 272 36 84 -13 144 -94
134 -182 l-3 -29 -150 -6 c-82 -3 -166 -9 -185 -13 -76 -16 -170 -59 -213 -97
-66 -57 -92 -116 -91 -209 0 -125 52 -207 164 -259 49 -23 67 -26 165 -26 99
0 115 3 166 28 31 15 75 46 98 69 33 34 44 40 51 28 5 -8 6 -18 4 -22 -9 -15
27 -75 52 -87 45 -20 91 -14 126 18 l33 29 0 344 0 343 -28 56 c-35 73 -98
130 -173 159 -47 18 -84 23 -179 26 -66 1 -129 1 -140 -2z m295 -529 c12 -15
9 -91 -6 -145 -20 -68 -86 -139 -150 -160 -53 -18 -158 -9 -191 16 -49 37 -68
72 -68 124 0 63 25 97 99 134 83 42 290 62 316 31z"/>
<path d="M10620 5934 c-112 -22 -235 -91 -291 -165 -212 -278 -97 -705 217
-805 27 -8 96 -18 154 -21 168 -8 285 27 384 118 70 64 102 112 132 199 63
181 25 393 -95 522 -104 113 -187 148 -361 153 -63 2 -126 1 -140 -1z m228
-178 c33 -17 85 -73 106 -114 23 -45 46 -145 46 -202 0 -29 -7 -79 -16 -113
-39 -153 -121 -227 -252 -227 -147 0 -243 109 -259 295 -13 160 48 308 150
362 64 33 160 32 225 -1z"/>
<path d="M13067 5930 c-60 -15 -129 -55 -172 -99 -46 -48 -55 -50 -55 -16 0
63 -55 115 -122 115 -47 0 -80 -20 -100 -60 -17 -32 -18 -83 -18 -618 0 -640
-1 -625 60 -657 60 -31 137 -10 165 45 12 23 15 71 15 240 0 115 3 210 6 210
4 0 29 -21 56 -46 27 -25 74 -57 106 -72 50 -23 70 -26 162 -26 99 -1 109 1
172 32 158 77 249 272 235 501 -13 208 -105 368 -252 435 -46 22 -198 31 -258
16z m140 -175 c56 -37 103 -112 117 -187 13 -72 8 -226 -10 -290 -23 -79 -88
-150 -155 -168 -95 -26 -200 12 -255 94 -49 70 -59 114 -58 256 1 140 17 196
76 257 64 67 211 86 285 38z"/>
<path d="M4990 5915 c-50 -27 -51 -36 -48 -395 l3 -335 33 -67 c35 -72 78
-114 152 -150 38 -19 62 -22 150 -22 92 0 112 3 162 26 31 15 78 47 103 72 25
25 48 46 50 46 3 0 5 -11 5 -25 0 -87 99 -142 180 -100 59 31 60 35 60 475 0
440 -1 444 -60 475 -60 31 -137 10 -165 -45 -12 -24 -15 -78 -15 -302 0 -150
-5 -289 -10 -309 -13 -48 -75 -118 -124 -140 -25 -11 -64 -19 -101 -19 -84 0
-132 28 -167 99 l-28 55 0 304 0 304 -34 34 c-28 28 -41 34 -77 34 -24 -1 -55
-7 -69 -15z"/>
<path d="M6885 5921 c-11 -5 -29 -19 -40 -31 -19 -21 -20 -38 -23 -435 -2
-259 1 -422 7 -439 23 -59 123 -86 175 -45 56 44 56 45 56 468 0 381 -3 426
-33 455 -34 34 -95 46 -142 27z"/>
<path d="M8085 5921 c-11 -5 -29 -19 -40 -31 -19 -21 -20 -36 -20 -359 l0
-336 31 -65 c38 -79 81 -124 154 -159 48 -23 68 -26 155 -26 89 0 107 3 161
28 34 16 81 48 105 73 24 24 47 44 51 44 4 0 8 -18 8 -39 0 -32 6 -44 35 -70
29 -25 45 -31 81 -31 39 0 51 5 80 34 l34 34 0 422 0 422 -35 35 c-33 33 -38
35 -87 31 -42 -4 -57 -11 -80 -37 l-28 -31 0 -271 c0 -157 -4 -288 -11 -312
-14 -58 -69 -130 -115 -152 -42 -20 -137 -31 -178 -21 -36 9 -84 53 -106 97
-19 35 -20 60 -20 333 0 287 -4 332 -33 360 -34 34 -95 46 -142 27z"/>
<path d="M11514 5920 c-12 -4 -31 -21 -43 -36 -22 -28 -22 -31 -19 -359 l3
-330 28 -60 c34 -73 85 -128 152 -163 45 -24 60 -27 160 -27 101 0 114 2 165
28 30 16 75 48 100 73 25 24 49 44 53 44 4 0 7 -16 7 -36 0 -28 8 -44 34 -70
29 -29 41 -34 81 -34 40 0 52 5 81 34 l34 34 0 416 c0 345 -3 422 -15 445 -31
61 -137 68 -187 11 l-28 -30 0 -273 c0 -302 -6 -344 -59 -408 -77 -93 -245
-108 -318 -28 -51 56 -55 82 -57 404 -1 217 -5 306 -14 322 -25 45 -103 66
-158 43z"/>
</g>
</svg>
