<?xml version="1.0" standalone="no"?>
<!DOCTYPE svg PUBLIC "-//W3C//DTD SVG 20010904//EN"
 "http://www.w3.org/TR/2001/REC-SVG-20010904/DTD/svg10.dtd">
<svg version="1.0" xmlns="http://www.w3.org/2000/svg"
 width="200.000000pt" height="78.000000pt" viewBox="0 0 200.000000 78.000000"
 preserveAspectRatio="xMidYMid meet">

<g transform="translate(0.000000,78.000000) scale(0.100000,-0.100000)"
fill="#000000" stroke="none">
<path d="M313 773 c3 -5 39 -151 82 -325 l77 -318 85 0 84 0 111 227 c60 126
118 247 129 271 l18 42 -77 0 -78 0 -78 -165 c-44 -91 -82 -162 -86 -158 -4 4
-26 87 -50 183 -23 96 -46 192 -51 213 l-10 37 -80 0 c-44 0 -78 -3 -76 -7z"/>
<path d="M900 610 c-16 -33 -30 -62 -30 -65 0 -3 24 -5 53 -5 l53 0 -36 -205
-37 -206 71 3 71 3 35 200 35 200 66 3 65 3 32 64 32 65 -190 0 -190 0 -30
-60z"/>
<path d="M1309 608 c-26 -51 -39 -103 -69 -268 l-36 -205 75 -3 c47 -2 77 1
81 8 4 6 12 48 19 94 12 82 24 116 36 104 4 -3 24 -81 47 -172 l40 -166 78 0
78 0 -13 57 c-8 32 -30 125 -50 206 l-37 149 86 129 86 129 -79 0 -78 0 -63
-95 c-78 -118 -92 -122 -74 -22 22 120 23 117 -41 117 l-55 0 -31 -62z"/>
</g>
</svg>
